<?xml version="1.0" encoding="utf-8"?>
<!-- Generator: Adobe Illustrator 16.0.0, SVG Export Plug-In . SVG Version: 6.00 Build 0)  -->
<!DOCTYPE svg PUBLIC "-//W3C//DTD SVG 1.1//EN" "http://www.w3.org/Graphics/SVG/1.1/DTD/svg11.dtd">
<svg version="1.1" id="svg" xmlns="http://www.w3.org/2000/svg" x="0px" y="0px"
     width="400px" height="346.199px" viewBox="0 0 400 346.199" enable-background="new 0 0 400 346.199"
     xml:space="preserve">
<g id="svgg">
	<path id="path0" fill="#9A9A9A" d="M7.686,8.855c-1.649,1.649-1.838,15.618-1.838,136.258v134.419h193.567h193.566V145.211
		c0-128.644-0.09-134.403-2.138-136.258C387.64,6.054,10.583,5.958,7.686,8.855 M312,87.141c7.656,1.805,18.754,6.887,23.588,10.801
		l2.831,2.293l-6.718,9.532c-7.559,10.726-7.318,10.606-13.383,6.595c-14.914-9.87-35.823-9.878-38.3-0.015
		c-1.755,6.994,3.072,10.211,24.348,16.221c27.466,7.759,35.493,14.685,36.868,31.81c1.519,18.911-10.106,33.618-29.889,37.816
		c-4.192,0.889-28.702,1.314-75.73,1.314h-69.533v-58.479V86.55h40.936h40.936v12.28v12.281h-27.485h-27.486v11.111v11.11h27.486
		h27.485v11.696v11.696h-27.485h-27.486v11.695v11.696h52.699c56.45,0,61.413-0.422,65.46-5.567
		c6.882-8.749,0.178-14.838-23.589-21.427c-27.567-7.642-34.654-15.063-33.546-35.123C255.403,92.712,280.036,79.605,312,87.141
		 M87.719,109.357v22.807h22.807h22.808v-22.807V86.55h12.866h12.864v58.479v58.479h-12.864h-12.866v-23.392v-23.392h-22.808H87.719
		v23.392v23.392h-13.45h-13.45v-58.479V86.55h13.45h13.45V109.357 M5.848,311.045c0,23.986,0.054,24.533,2.599,26.316
		c4.611,3.229,378.956,2.721,382.196-0.52c2.187-2.187,2.339-3.898,2.339-26.315V286.55H199.415H5.848V311.045 M236.257,301.17
		c0,2.47-0.545,2.924-3.508,2.924s-3.509-0.454-3.509-2.924s0.546-2.924,3.509-2.924S236.257,298.7,236.257,301.17 M314.619,312.281
		v14.035h-2.924h-2.924v-14.035v-14.035h2.924h2.924V312.281 M91.228,312.865v13.451h-3.509h-3.508v-13.451v-13.45h3.508h3.509
		V312.865 M125.146,302.924c0,1.56,0.78,2.34,2.339,2.34c1.717,0,2.341,0.779,2.341,2.924c0,2.173-0.62,2.924-2.41,2.924
		c-2.07,0-2.359,0.62-2.047,4.386c0.289,3.497,0.795,4.313,2.493,4.023c1.71-0.291,2.058,0.287,1.756,2.924
		c-0.996,8.681-10.319,4.125-10.319-5.043c0-3.46-0.526-6.29-1.169-6.29c-0.645,0-1.17-1.316-1.17-2.924
		c0-1.608,0.525-2.924,1.17-2.924c0.643,0,1.169-1.053,1.169-2.34c0-1.715,0.78-2.339,2.924-2.339
		C124.366,300.585,125.146,301.209,125.146,302.924 M221.053,302.924c0,1.56,0.779,2.34,2.339,2.34c1.715,0,2.339,0.779,2.339,2.924
		c0,2.173-0.619,2.924-2.41,2.924c-2.068,0-2.357,0.62-2.047,4.386c0.29,3.497,0.795,4.313,2.495,4.023
		c1.71-0.291,2.057,0.287,1.754,2.924c-0.995,8.681-10.317,4.125-10.317-5.043c0-3.46-0.527-6.29-1.17-6.29
		c-0.644,0-1.17-1.316-1.17-2.924c0-1.608,0.526-2.924,1.17-2.924c0.643,0,1.17-1.053,1.17-2.34c0-1.715,0.778-2.339,2.924-2.339
		C220.273,300.585,221.053,301.209,221.053,302.924 M112.86,307.95c1.146,1.636,1.761,5.276,1.761,10.439v7.927h-3.51
		c-3.505,0-3.509-0.008-3.509-6.949c0-7.264-1.272-9.427-4.144-7.044c-1.105,0.917-1.704,3.623-1.704,7.703
		c0,5.929-0.167,6.29-2.924,6.29c-2.899,0-2.925-0.087-2.925-10.396v-10.395l7.599-0.044
		C109.978,305.445,111.361,305.81,112.86,307.95 M146.731,305.99c2.286,0.877,5.316,6.429,5.316,9.741
		c0,2.13-0.728,2.397-6.502,2.397c-4.395,0-6.246,0.413-5.714,1.274c0.465,0.753,2.344,0.982,4.585,0.562
		c5.256-0.985,7.714,1.832,3.918,4.491c-7.175,5.025-16.17,0.113-16.17-8.83C132.164,307.429,138.889,302.98,146.731,305.99
		 M167.251,308.893c0,2.194-0.603,3.388-1.713,3.388c-2.453,0-4.135,3.774-4.135,9.28c0,4.503-0.186,4.755-3.509,4.755h-3.509
		v-10.482v-10.482l6.433,0.077C167.118,305.503,167.251,305.575,167.251,308.893 M186.81,306.649
		c3.199,2.655,1.962,19.667-1.43,19.667c-2.745,0-2.925-0.375-2.942-6.142c-0.02-7.008-1.257-9.722-3.957-8.686
		c-1.431,0.549-1.873,2.383-1.873,7.773v7.054h-3.509h-3.508v-10.453v-10.454h7.863C181.778,305.409,185.989,305.967,186.81,306.649
		 M208.187,307.602c1.891,1.891,2.339,3.898,2.339,10.466v8.126l-7.272-0.035c-9.278-0.044-11.44-1.194-11.44-6.083
		c0-4.991,1.807-6.626,7.32-6.626c3.01,0,4.246-0.432,3.711-1.298c-0.463-0.749-2.423-1.036-4.635-0.677
		c-4.078,0.662-6.859-3.28-3.722-5.275C197.419,304.338,205.779,305.194,208.187,307.602 M236.257,315.789v10.527h-3.508h-3.509
		v-10.527v-10.525h3.509h3.508V315.789 M257.948,308.134c4.848,4.848,3.854,13.5-1.891,16.472
		c-8.331,4.308-16.823-0.143-16.823-8.816C239.234,306.275,251.196,301.382,257.948,308.134 M280.994,307.304
		c1.598,1.429,2.047,3.717,2.047,10.421v8.591h-3.509c-3.506,0-3.51-0.008-3.51-6.949c0-3.981-0.575-7.304-1.347-7.781
		c-2.252-1.392-4.501,3.156-4.501,9.105c0,5.22-0.21,5.625-2.924,5.625c-2.899,0-2.924-0.086-2.924-10.41v-10.409l7.31-0.012
		C276.633,305.477,279.595,306.053,280.994,307.304 M301.493,307.084c2.285,1.601,2.601,2.86,2.601,10.409v8.589l-7.31,0.012
		c-7.852,0.014-11.404-1.82-11.404-5.884c0-4.675,2.199-6.76,7.128-6.76c2.994,0,4.429-0.447,3.946-1.229
		c-0.418-0.677-2.407-1.071-4.42-0.878c-3.991,0.386-6.04-3.098-2.969-5.045C291.628,304.675,298.692,305.121,301.493,307.084
		 M139.181,312.281c0,0.643,1.347,1.169,2.993,1.169c1.698,0,2.68-0.506,2.27-1.169c-0.396-0.644-1.743-1.17-2.992-1.17
		C140.203,311.111,139.181,311.637,139.181,312.281 M246.83,312.809c-1.672,2.015-0.663,6.002,1.753,6.929
		c4.064,1.56,7.291-2.414,5.173-6.372C252.329,310.7,248.815,310.417,246.83,312.809 M198.944,318.577
		c-1.026,1.237-0.967,1.762,0.256,2.231c2.164,0.83,4.802-0.937,3.806-2.55C201.927,316.515,200.567,316.621,198.944,318.577
		 M293.471,318.188c-1.14,0.705-1.266,1.385-0.416,2.235c0.851,0.851,1.877,0.744,3.371-0.348
		C299.008,318.187,296.286,316.448,293.471,318.188"/>
</g>
</svg>
