<?xml version="1.0" encoding="utf-8"?>
<!-- Generator: Adobe Illustrator 16.0.0, SVG Export Plug-In . SVG Version: 6.00 Build 0)  -->
<!DOCTYPE svg PUBLIC "-//W3C//DTD SVG 1.1//EN" "http://www.w3.org/Graphics/SVG/1.1/DTD/svg11.dtd">
<svg version="1.1" id="svg" xmlns="http://www.w3.org/2000/svg" xmlns:xlink="http://www.w3.org/1999/xlink" x="0px" y="0px"
	 width="400px" height="400px" viewBox="0 -26.9 400 400" enable-background="new 0 -26.9 400 400" xml:space="preserve">
<g id="svgg">
	<path id="path0" d="M7.686,8.818c-1.65,1.65-1.838,15.618-1.838,136.258v134.419h193.567h193.567V145.174
		c0-128.644-0.09-134.404-2.139-136.258C387.641,6.017,10.583,5.921,7.686,8.818 M312,87.104
		c7.657,1.805,18.754,6.887,23.588,10.801l2.831,2.293l-6.717,9.532c-7.56,10.726-7.319,10.607-13.384,6.595
		c-14.913-9.87-35.823-9.878-38.299-0.015c-1.756,6.995,3.071,10.211,24.348,16.221c27.466,7.759,35.492,14.685,36.867,31.81
		c1.519,18.911-10.106,33.618-29.889,37.815c-4.191,0.89-28.701,1.315-75.73,1.315h-69.533v-58.48V86.513h40.936h40.936v12.28
		v12.281h-27.485h-27.486v11.111v11.111h27.486h27.485v11.696v11.696h-27.485h-27.486v11.696v11.696h52.7
		c56.449,0,61.412-0.422,65.459-5.567c6.883-8.749,0.178-14.838-23.589-21.427c-27.567-7.642-34.653-15.063-33.546-35.123
		C255.402,92.675,280.036,79.568,312,87.104 M87.719,109.32v22.807h22.807h22.807V109.32V86.513h12.866h12.865v58.479v58.48h-12.865
		h-12.866V180.08v-23.392h-22.807H87.719v23.392v23.392h-13.45h-13.45v-58.48V86.513h13.45h13.45V109.32 M5.848,311.008
		c0,23.986,0.054,24.533,2.599,26.316c4.611,3.229,378.956,2.721,382.196-0.52c2.188-2.187,2.34-3.898,2.34-26.315v-23.977H199.415
		H5.848V311.008 M236.257,301.133c0,2.469-0.545,2.924-3.508,2.924s-3.509-0.455-3.509-2.924c0-2.47,0.546-2.924,3.509-2.924
		S236.257,298.663,236.257,301.133 M314.62,312.244v14.035h-2.924h-2.925v-14.035v-14.035h2.925h2.924V312.244 M91.228,312.828
		v13.451h-3.509h-3.508v-13.451v-13.45h3.508h3.509V312.828 M125.146,302.887c0,1.559,0.78,2.34,2.339,2.34
		c1.716,0,2.34,0.779,2.34,2.924c0,2.173-0.62,2.924-2.41,2.924c-2.07,0-2.359,0.62-2.047,4.386
		c0.289,3.497,0.795,4.312,2.494,4.022c1.71-0.291,2.057,0.287,1.755,2.925c-0.996,8.681-10.319,4.125-10.319-5.043
		c0-3.46-0.526-6.29-1.169-6.29c-0.644,0-1.17-1.316-1.17-2.924c0-1.608,0.526-2.924,1.17-2.924c0.643,0,1.169-1.053,1.169-2.34
		c0-1.715,0.78-2.339,2.924-2.339S125.146,301.172,125.146,302.887 M221.053,302.887c0,1.559,0.779,2.34,2.34,2.34
		c1.715,0,2.338,0.779,2.338,2.924c0,2.173-0.619,2.924-2.41,2.924c-2.068,0-2.357,0.62-2.047,4.386
		c0.291,3.497,0.795,4.312,2.496,4.022c1.709-0.291,2.056,0.287,1.754,2.925c-0.996,8.681-10.318,4.125-10.318-5.043
		c0-3.46-0.527-6.29-1.17-6.29s-1.17-1.316-1.17-2.924c0-1.608,0.527-2.924,1.17-2.924s1.17-1.053,1.17-2.34
		c0-1.715,0.779-2.339,2.924-2.339S221.053,301.172,221.053,302.887 M112.86,307.913c1.146,1.636,1.76,5.275,1.76,10.438v7.928
		h-3.509c-3.505,0-3.509-0.009-3.509-6.949c0-7.265-1.273-9.427-4.144-7.044c-1.105,0.917-1.704,3.623-1.704,7.703
		c0,5.929-0.167,6.29-2.924,6.29c-2.899,0-2.924-0.088-2.924-10.396v-10.396l7.598-0.043
		C109.978,305.408,111.361,305.773,112.86,307.913 M146.731,305.953c2.286,0.877,5.316,6.429,5.316,9.741
		c0,2.13-0.727,2.397-6.502,2.397c-4.394,0-6.246,0.413-5.714,1.274c0.465,0.753,2.344,0.982,4.585,0.562
		c5.256-0.986,7.714,1.832,3.918,4.491c-7.175,5.025-16.17,0.113-16.17-8.83C132.164,307.392,138.889,302.943,146.731,305.953
		 M167.251,308.855c0,2.195-0.602,3.389-1.713,3.389c-2.453,0-4.134,3.773-4.134,9.279c0,4.504-0.186,4.756-3.509,4.756h-3.509
		v-10.482v-10.482l6.433,0.076C167.118,305.466,167.251,305.538,167.251,308.855 M186.81,306.612
		c3.199,2.654,1.962,19.667-1.43,19.667c-2.745,0-2.925-0.375-2.942-6.142c-0.02-7.008-1.257-9.722-3.957-8.686
		c-1.431,0.549-1.873,2.383-1.873,7.772v7.055h-3.509h-3.508v-10.453v-10.454h7.863C181.778,305.372,185.989,305.93,186.81,306.612
		 M208.188,307.564c1.89,1.892,2.338,3.899,2.338,10.467v8.126l-7.272-0.035c-9.278-0.044-11.44-1.194-11.44-6.083
		c0-4.991,1.806-6.626,7.32-6.626c3.01,0,4.246-0.433,3.711-1.298c-0.463-0.749-2.423-1.036-4.635-0.678
		c-4.078,0.662-6.859-3.279-3.721-5.274C197.419,304.301,205.779,305.156,208.188,307.564 M236.257,315.752v10.527h-3.508h-3.509
		v-10.527v-10.525h3.509h3.508V315.752 M257.948,308.097c4.847,4.848,3.853,13.5-1.892,16.472
		c-8.33,4.308-16.822-0.143-16.822-8.816C239.234,306.238,251.195,301.345,257.948,308.097 M280.994,307.267
		c1.598,1.43,2.047,3.718,2.047,10.421v8.592h-3.509c-3.505,0-3.509-0.009-3.509-6.949c0-3.981-0.575-7.305-1.348-7.781
		c-2.252-1.392-4.501,3.156-4.501,9.105c0,5.22-0.21,5.625-2.924,5.625c-2.899,0-2.924-0.086-2.924-10.41V305.46l7.31-0.013
		C276.633,305.439,279.595,306.016,280.994,307.267 M301.494,307.047c2.285,1.6,2.6,2.86,2.6,10.409v8.589l-7.31,0.012
		c-7.851,0.014-11.404-1.82-11.404-5.884c0-4.675,2.199-6.76,7.128-6.76c2.994,0,4.43-0.447,3.946-1.23
		c-0.418-0.676-2.407-1.07-4.42-0.877c-3.991,0.385-6.04-3.098-2.968-5.045C291.628,304.638,298.691,305.084,301.494,307.047
		 M139.181,312.244c0,0.643,1.347,1.169,2.993,1.169c1.698,0,2.68-0.506,2.27-1.169c-0.397-0.645-1.744-1.17-2.993-1.17
		C140.203,311.074,139.181,311.6,139.181,312.244 M246.83,312.771c-1.672,2.016-0.663,6.002,1.753,6.93
		c4.065,1.56,7.291-2.414,5.173-6.372C252.329,310.663,248.814,310.38,246.83,312.771 M198.944,318.54
		c-1.027,1.237-0.967,1.762,0.255,2.23c2.165,0.83,4.802-0.936,3.806-2.549C201.927,316.478,200.566,316.584,198.944,318.54
		 M293.471,318.15c-1.14,0.705-1.266,1.386-0.416,2.236c0.852,0.851,1.877,0.744,3.371-0.348
		C299.008,318.15,296.286,316.411,293.471,318.15"/>
</g>
</svg>
