<svg xmlns="http://www.w3.org/2000/svg" xmlns:xlink="http://www.w3.org/1999/xlink" id="Layer_1" width="728.5" height="238" x="0" y="0" enable-background="new 0 23 728.5 238" version="1.1" viewBox="0 23 728.5 238" xml:space="preserve"><g><path fill="#FFF" d="M75.385,223.023L56.113,261H14.17L127.531,34.279l75.668,151.336h-42.51l-33.158-66.6l-33.441,66.6 L75.385,223.023z M240.891,261h-42.227l-18.705-37.691h41.943L240.891,261z"/><path fill="#FFF" d="M268.94,166.627c-18.421,0-34.008-6.518-46.761-19.271c-12.753-13.037-19.271-28.624-19.271-47.044 c0-18.138,6.518-33.441,19.271-46.478c12.753-13.037,28.34-19.555,46.761-19.555v37.976c-3.968,0-7.652,0.566-11.053,1.983 c-3.684,1.417-6.519,3.401-9.353,6.235c-2.55,2.55-4.534,5.668-5.951,9.068c-1.417,3.401-1.984,7.085-1.984,10.77 c0,7.936,2.551,14.453,7.935,20.121c5.668,5.668,12.187,8.502,20.405,8.502h56.396c18.421,0,34.008,6.519,46.762,19.271 c13.036,13.036,19.556,28.624,19.556,46.762s-6.52,33.726-19.556,46.761C359.345,254.48,343.758,261,325.337,261v-37.977 c3.968,0,7.652-0.566,11.053-1.983c3.686-1.417,6.803-3.399,9.354-5.951c2.55-2.551,4.534-5.385,5.951-9.067 c1.417-3.401,2.268-7.086,2.268-11.054c0-7.651-3.118-14.17-8.502-19.839c-5.668-5.668-12.186-8.502-20.122-8.502H268.94z"/><path fill="#FFF" d="M484.891,179.664L531.368,261h-43.36l-65.749-113.645l33.726,0.283c10.203,0,18.987-3.685,26.355-11.053 c7.652-7.368,11.336-16.438,11.336-26.923c0-10.203-3.684-18.988-11.336-26.356c-7.368-7.369-16.152-11.053-26.355-11.053h-75.668 l-4.251-4.251L356.51,34.279h99.475c20.688,0,38.543,7.368,53.278,22.104c14.737,15.021,22.105,32.592,22.105,53.28 c0,15.87-4.251,30.04-13.319,42.793C509.263,165.21,498.211,174.279,484.891,179.664z"/><path fill="#FFF" d="M675.046,179.664L721.523,261h-43.36l-65.749-113.645l33.725,0.283c10.203,0,18.988-3.685,26.356-11.053 c7.651-7.368,11.336-16.438,11.336-26.923c0-10.203-3.685-18.988-11.336-26.356c-7.368-7.369-16.153-11.053-26.356-11.053h-75.668 l-4.251-4.251l-19.555-33.725h99.474c20.688,0,38.543,7.368,53.279,22.104c14.737,15.021,22.105,32.592,22.105,53.28 c0,15.87-4.252,30.04-13.319,42.793C699.418,165.21,688.366,174.279,675.046,179.664z"/></g></svg>