<?xml version="1.0" encoding="utf-8"?>
<!-- Generator: Adobe Illustrator 16.0.0, SVG Export Plug-In . SVG Version: 6.00 Build 0)  -->
<!DOCTYPE svg PUBLIC "-//W3C//DTD SVG 1.1//EN" "http://www.w3.org/Graphics/SVG/1.1/DTD/svg11.dtd">
<svg version="1.1" id="Layer_1" xmlns="http://www.w3.org/2000/svg" xmlns:xlink="http://www.w3.org/1999/xlink" x="0px" y="0px"
	 width="139.53px" height="48.861px" viewBox="330.236 108.139 139.53 48.861"
	 enable-background="new 330.236 108.139 139.53 48.861" xml:space="preserve">
<g>
	<path d="M342.311,145.37l-3.802,7.491h-8.273l22.361-44.722l14.926,29.852h-8.386l-6.541-13.137l-6.596,13.137L342.311,145.37z
		 M374.958,152.861h-8.329l-3.69-7.435h8.273L374.958,152.861z"/>
	<path d="M380.491,134.246c-3.634,0-6.708-1.286-9.224-3.802c-2.516-2.571-3.801-5.646-3.801-9.279c0-3.578,1.286-6.597,3.801-9.169
		c2.516-2.571,5.59-3.857,9.224-3.857v7.491c-0.783,0-1.509,0.112-2.181,0.392c-0.727,0.279-1.286,0.671-1.845,1.229
		c-0.503,0.503-0.894,1.118-1.174,1.789c-0.279,0.671-0.392,1.397-0.392,2.124c0,1.565,0.503,2.852,1.565,3.97
		c1.118,1.117,2.404,1.677,4.025,1.677h11.125c3.634,0,6.708,1.286,9.224,3.801c2.571,2.572,3.857,5.646,3.857,9.225
		c0,3.577-1.286,6.652-3.857,9.224c-2.516,2.516-5.59,3.802-9.224,3.802v-7.491c0.783,0,1.509-0.111,2.18-0.392
		c0.727-0.279,1.342-0.67,1.845-1.174c0.503-0.503,0.895-1.062,1.174-1.788c0.28-0.671,0.448-1.397,0.448-2.181
		c0-1.509-0.615-2.795-1.677-3.913c-1.118-1.118-2.404-1.677-3.969-1.677H380.491z"/>
	<path d="M423.088,136.817l9.168,16.044h-8.553l-12.97-22.417l6.652,0.056c2.013,0,3.745-0.727,5.199-2.18
		c1.509-1.454,2.235-3.243,2.235-5.311c0-2.013-0.727-3.746-2.235-5.199c-1.454-1.454-3.187-2.181-5.199-2.181H402.46l-0.839-0.838
		l-3.857-6.652h19.622c4.081,0,7.603,1.453,10.51,4.359c2.907,2.964,4.36,6.43,4.36,10.511c0,3.13-0.838,5.925-2.627,8.44
		C427.896,133.966,425.715,135.755,423.088,136.817z"/>
	<path d="M460.598,136.817l9.168,16.044h-8.554l-12.97-22.417l6.652,0.056c2.014,0,3.746-0.727,5.199-2.18
		c1.51-1.454,2.236-3.243,2.236-5.311c0-2.013-0.727-3.746-2.236-5.199c-1.453-1.454-3.186-2.181-5.199-2.181h-14.926l-0.838-0.838
		l-3.857-6.653h19.621c4.081,0,7.604,1.454,10.51,4.36c2.907,2.963,4.361,6.43,4.361,10.51c0,3.131-0.84,5.926-2.628,8.441
		C465.405,133.966,463.225,135.755,460.598,136.817z"/>
</g>
</svg>
