<?xml version="1.0" encoding="utf-8"?>
<!-- Generator: Adobe Illustrator 16.0.0, SVG Export Plug-In . SVG Version: 6.00 Build 0)  -->
<!DOCTYPE svg PUBLIC "-//W3C//DTD SVG 1.1//EN" "http://www.w3.org/Graphics/SVG/1.1/DTD/svg11.dtd">
<svg version="1.1" id="Layer_1" xmlns="http://www.w3.org/2000/svg" xmlns:xlink="http://www.w3.org/1999/xlink" x="0px" y="0px"
	 width="139.529px" height="48.861px" viewBox="0 0 139.529 48.861" enable-background="new 0 0 139.529 48.861"
	 xml:space="preserve">
<g>
	<path fill="#FFFFFF" stroke="#000000" stroke-miterlimit="10" d="M12.074,39.3l-3.802,7.491H0l22.36-44.722l14.927,29.852h-8.387
		L22.36,18.784l-6.596,13.137L12.074,39.3z M44.722,46.791h-8.329l-3.689-7.436h8.272L44.722,46.791z"/>
	<path fill="#FFFFFF" stroke="#000000" stroke-miterlimit="10" d="M50.255,28.176c-3.634,0-6.708-1.286-9.225-3.802
		c-2.516-2.571-3.801-5.646-3.801-9.279c0-3.578,1.286-6.597,3.801-9.169c2.517-2.571,5.591-3.856,9.225-3.856v7.49
		c-0.783,0-1.509,0.112-2.182,0.393c-0.727,0.278-1.285,0.671-1.845,1.229c-0.503,0.503-0.894,1.118-1.174,1.789
		c-0.279,0.671-0.392,1.397-0.392,2.124c0,1.565,0.503,2.853,1.564,3.97c1.118,1.117,2.404,1.678,4.025,1.678h11.125
		c3.634,0,6.708,1.286,9.224,3.801c2.571,2.572,3.857,5.646,3.857,9.225c0,3.577-1.286,6.652-3.857,9.225
		c-2.516,2.516-5.59,3.802-9.224,3.802v-7.491c0.782,0,1.509-0.111,2.18-0.392c0.727-0.279,1.342-0.67,1.845-1.174
		s0.896-1.063,1.174-1.788c0.28-0.671,0.448-1.397,0.448-2.182c0-1.509-0.614-2.795-1.677-3.913
		c-1.118-1.117-2.404-1.677-3.969-1.677L50.255,28.176L50.255,28.176z"/>
	<path fill="#FFFFFF" stroke="#000000" stroke-miterlimit="10" d="M92.852,30.747l9.168,16.044h-8.553l-12.97-22.417l6.651,0.056
		c2.014,0,3.745-0.727,5.199-2.18c1.509-1.454,2.235-3.243,2.235-5.312c0-2.013-0.728-3.745-2.235-5.198
		c-1.454-1.454-3.188-2.182-5.199-2.182H72.224L71.385,8.72l-3.857-6.651H87.15c4.081,0,7.604,1.452,10.511,4.358
		c2.906,2.964,4.359,6.431,4.359,10.511c0,3.131-0.838,5.926-2.627,8.44C97.66,27.895,95.479,29.684,92.852,30.747z"/>
	<path fill="#FFFFFF" stroke="#000000" stroke-miterlimit="10" d="M130.362,30.747l9.168,16.044h-8.554l-12.97-22.417l6.652,0.056
		c2.014,0,3.745-0.727,5.198-2.18c1.511-1.454,2.236-3.243,2.236-5.312c0-2.013-0.728-3.745-2.236-5.198
		c-1.453-1.454-3.186-2.182-5.198-2.182h-14.927l-0.838-0.838l-3.856-6.652h19.621c4.08,0,7.604,1.453,10.51,4.359
		c2.906,2.963,4.36,6.431,4.36,10.51c0,3.132-0.84,5.927-2.628,8.441C135.169,27.895,132.989,29.684,130.362,30.747z"/>
</g>
</svg>
