<?xml version="1.0" encoding="utf-8"?>
<!-- Generator: Adobe Illustrator 16.0.0, SVG Export Plug-In . SVG Version: 6.00 Build 0)  -->
<!DOCTYPE svg PUBLIC "-//W3C//DTD SVG 1.1//EN" "http://www.w3.org/Graphics/SVG/1.1/DTD/svg11.dtd">
<svg version="1.1" id="svg" xmlns="http://www.w3.org/2000/svg" x="0px" y="0px"
     width="400px" height="313.453px" viewBox="0 0 400 313.453" enable-background="new 0 0 400 313.453"
     xml:space="preserve">
<g id="svgg">
	<path id="path0" fill="#9A9A9A" d="M168.655,0.328c0.534,0.171,2.979,0.908,5.433,1.639c43.227,12.862,76.541,50.455,84.294,95.12
		c10.832,62.4-27.542,122.356-88.755,138.674l-3.052,0.813l3.052,0.014c11.224,0.05,105.289-1.978,108.599-2.341
		c56.382-6.196,99.545-48.734,105.259-103.734C390.082,66.99,345.315,11.192,280.999,2.78c-6.172-0.808-14.376-1.057-59.641-1.815
		c-22.197-0.372-43.355-0.737-47.018-0.812C169.19,0.048,167.903,0.088,168.655,0.328 M132.316,0.717
		C117.53,1.953,107.051,4.255,95.562,8.79C31.272,34.166,2.385,108.871,33.056,170.433c27.248,54.69,92.006,79.596,148.775,57.217
		c4.296-1.692,11.497-5.197,16.028-7.8l3.271-1.877l-2.922-1.903c-69.9-45.5-69.943-149.79-0.081-195.612
		c2.634-1.728,2.927-1.997,2.498-2.298C184.645,6.969,153.292-1.037,132.316,0.717 M317.044,85.034
		c21.64,4.104,33.733,24.497,26.726,45.063c-10.874,31.912-59.712,30.209-68.179-2.378c-2.562-9.857-1.238-19.554,3.711-27.207
		C286.95,88.685,302.555,82.286,317.044,85.034 M97.226,106.651c8.239,10.6,15.073,19.275,15.188,19.278
		c0.114,0.004,0.208-8.668,0.208-19.271V87.379h8.321h8.322v31.899v31.9l-8.391-0.014l-8.392-0.015l-12.898-16.651
		c-7.095-9.159-13.835-17.885-14.979-19.393c-1.145-1.507-2.174-2.745-2.289-2.752c-0.113-0.006-0.208,8.728-0.208,19.406v19.418
		h-8.321h-8.321v-31.9V87.379h8.391h8.392L97.226,106.651 M155.062,87.692c0,0.173,2.861,9.877,6.356,21.567
		c3.496,11.69,7.694,25.748,9.331,31.24c1.635,5.493,3.098,10.144,3.251,10.337c0.215,0.271,2.127,0.335,8.48,0.278l8.203-0.074
		l0.668-1.942c0.368-1.066,2.851-8.37,5.517-16.227c2.666-7.857,5.188-15.277,5.604-16.489c0.416-1.212,0.828-2.086,0.915-1.942
		c0.088,0.145,0.722,2.135,1.411,4.423c0.688,2.288,2.839,9.403,4.779,15.812c1.938,6.408,3.774,12.524,4.08,13.592
		c0.92,3.232-0.084,2.914,9.167,2.909c4.457-0.003,8.231-0.096,8.387-0.208c0.156-0.112,0.822-1.889,1.481-3.949
		c4.448-13.896,5.743-17.95,6.557-20.526c0.505-1.603,1.606-5.035,2.449-7.629c0.842-2.594,2.358-7.337,3.372-10.541
		c1.014-3.203,2.896-9.086,4.184-13.071s2.34-7.386,2.34-7.56c0-0.225-2.383-0.312-8.53-0.311l-8.529,0.001l-5.951,20.406
		c-3.273,11.223-6.022,20.449-6.109,20.503s-1.015-2.732-2.062-6.19c-1.047-3.459-3.184-10.47-4.745-15.581
		c-1.563-5.11-3.508-11.509-4.322-14.217l-1.48-4.923h-6.573h-6.572l-2.404,7.42c-1.321,4.081-3.218,9.917-4.212,12.968
		c-4.176,12.815-5.886,18.094-6.202,19.141c-0.184,0.609-0.426,1.209-0.536,1.33c-0.111,0.122-1.168-3.372-2.348-7.767
		c-1.18-4.393-2.805-10.422-3.61-13.396c-0.807-2.977-2.325-8.623-3.375-12.552l-1.91-7.141l-8.53-0.002
		C157.444,87.379,155.062,87.466,155.062,87.692 M307.767,100.874c-15.333,2.446-21.112,19.596-10.277,30.498
		c11.49,11.561,30.701,3.056,30.661-13.574C328.128,108.002,317.644,99.298,307.767,100.874 M219.417,271.39
		c-5.389,1.609-6.906,4.452-7.354,13.771c-0.523,10.938,1.039,16.53,5.188,18.557c5.76,2.813,13.456,1.14,15.824-3.44
		c1.985-3.842,2.287-18.705,0.478-23.543C231.849,272.179,225.198,269.665,219.417,271.39 M0.277,288.072v16.506h3.188h3.188
		l0.072-12.12l0.072-12.119l3.712,9.97c2.041,5.483,4.082,10.94,4.534,12.126l0.823,2.156l4.48-0.076l4.481-0.076l0.07-16.435
		l0.072-16.437h-3.331h-3.331l-0.009,11.305l-0.009,11.304l-4.338-11.304l-4.339-11.305H4.946H0.277V288.072 M79.612,277.54v5.974
		l-0.966-0.966c-2.393-2.394-7.023-2.042-8.998,0.682c-2.296,3.17-2.265,15.987,0.048,19.418c1.914,2.842,6.977,3.077,9.297,0.436
		l0.896-1.022v1.258v1.259h3.051h3.053v-16.506v-16.505h-3.19h-3.19V277.54 M104.022,271.804c0,0.196,6.591,30.158,7.072,32.149
		c0.136,0.561,7.63,1.07,7.63,0.52c0-0.058,1.248-5.391,2.774-11.852c1.525-6.46,2.773-11.864,2.773-12.009
		c0-1.014,0.58,1.422,2.774,11.645c1.372,6.395,2.553,11.783,2.625,11.973c0.125,0.33,7.638,0.55,7.638,0.226
		c0-0.068,1.623-7.436,3.606-16.372c1.983-8.938,3.605-16.311,3.605-16.383c0-0.569-6.657-0.088-6.79,0.49
		c-0.078,0.345-0.962,5.307-1.964,11.027s-1.893,10.589-1.98,10.818c-0.194,0.505-0.082,0.976-2.702-11.373
		c-1.15-5.416-2.156-10.128-2.237-10.473c-0.187-0.792-8.459-1.009-8.459-0.222c0,0.492-4.917,22.361-5.059,22.504
		c-0.057,0.056-0.44-1.736-0.854-3.981c-0.413-2.246-1.31-7.142-1.994-10.88c-0.685-3.737-1.31-7.076-1.39-7.421
		C110.941,271.545,104.022,271.165,104.022,271.804 M263.313,288.003l0.071,16.435h3.19h3.189l0.072-16.435l0.071-16.437h-3.333
		h-3.333L263.313,288.003 M276.073,288.003l0.071,16.435l3.121,0.079l3.121,0.078v-16.514v-16.515h-3.193h-3.191L276.073,288.003
		 M311.512,274.064v2.496h3.328h3.329v-2.496v-2.497h-3.329h-3.328V274.064 M192.302,276.373l-3.12,1.38v1.899v1.9h-1.249h-1.248
		v1.942v1.941h1.248h1.249l0.006,7.56c0.008,10.706,0.513,11.54,6.998,11.568l2.704,0.013v-2.025v-2.025l-0.955,0.112
		c-0.745,0.087-1.109-0.044-1.664-0.598l-0.709-0.709v-6.948v-6.947h1.664h1.664v-1.928v-1.928l-1.595-0.083l-1.595-0.083
		l-0.139-3.212l-0.139-3.211L192.302,276.373 M326.838,276.397l-3.121,1.382v1.888v1.887h-1.248h-1.248v1.942v1.941h1.231h1.232
		l0.086,7.857l0.085,7.857l0.738,1.114c1.113,1.683,2.322,2.15,5.85,2.264l2.982,0.097v-1.966v-1.968h-0.94
		c-2.189,0-2.239-0.171-2.337-8.157l-0.087-7.099h1.682h1.683v-1.928v-1.928l-1.596-0.083l-1.595-0.083l-0.139-3.2l-0.14-3.201
		L326.838,276.397 M225.52,276.53c1.708,1.188,2.215,3.829,2.215,11.542c0,9.608-0.903,12.067-4.438,12.067
		c-3.278,0-4.145-2.519-4.151-12.085c-0.006-7.287,0.267-9.173,1.608-11.165C221.492,275.791,224.167,275.59,225.52,276.53
		 M35.645,281.387c-4.533,1.433-5.548,3.52-5.548,11.401c0,9.477,1.965,12.065,9.154,12.065c6.311,0,8.709-2.36,9.306-9.163
		c0.92-10.49-1.815-14.733-9.463-14.674C37.807,281.027,36.255,281.194,35.645,281.387 M62.255,281.524
		c-0.621,0.282-1.526,0.994-2.011,1.582l-0.883,1.07v-1.45v-1.45h-3.051h-3.052v11.65v11.651h3.174h3.174l0.085-7.56
		c0.107-9.444,0.261-9.812,4.32-10.35l1.453-0.193v-2.738v-2.737l-1.041,0.006C63.852,281.008,62.876,281.242,62.255,281.524
		 M151.318,281.372c-4.586,1.511-5.548,3.492-5.548,11.416c0,6.499,0.327,7.896,2.318,9.887c3.376,3.376,11.53,2.913,14.375-0.817
		c0.847-1.109,1.159-1.913,1.614-4.146l0.183-0.902h-3.314h-3.314l-0.145,1.281c-0.582,5.158-5.469,2.967-5.474-2.455l-0.002-1.589
		l6.172-0.075l6.172-0.075l-0.063-2.635c-0.136-5.519-1.342-7.979-4.652-9.473C157.931,281.018,153.123,280.777,151.318,281.372
		 M173.297,281.3c-3.592,0.847-5.563,3-5.563,6.079c0,3.129,1.219,4.457,6.354,6.925c4.065,1.953,4.83,2.638,4.83,4.329
		c0,3.306-4.515,3.223-4.9-0.089l-0.17-1.457h-3.187h-3.188l0.194,1.714c0.474,4.188,2.458,5.752,7.604,5.994
		c6.02,0.283,9.436-1.783,9.936-6.008c0.427-3.605-1.166-5.604-6.479-8.125c-4.726-2.244-5.693-3.464-4.229-5.326
		c1.352-1.719,3.862-0.712,3.862,1.55v1.047h3.19h3.19l-0.007-1.04C184.712,282.615,179.186,279.913,173.297,281.3 M245.16,281.37
		c-4.31,1.216-5.642,3.987-5.619,11.694c0.024,8.831,1.987,11.5,8.636,11.746c5.026,0.187,8.309-1.641,9.356-5.208
		c0.842-2.87,0.917-2.793-2.717-2.793h-3.158l-0.185,1.229c-0.75,4.996-5.042,3.447-5.58-2.014l-0.196-1.989h6.315h6.316
		l-0.144-3.26c-0.305-6.993-2.58-9.505-8.776-9.688C247.545,281.034,245.985,281.137,245.16,281.37 M293.39,281.379
		c-4.367,1.229-5.988,4.897-5.651,12.796c0.351,8.211,2.424,10.547,9.349,10.534c5.015-0.009,7.656-1.569,8.72-5.149
		c0.837-2.817,0.904-2.75-2.725-2.75h-3.158l-0.185,1.229c-0.749,4.992-5.051,3.457-5.579-1.992l-0.196-2.011h6.315h6.316
		l-0.154-3.121c-0.354-7.194-2.539-9.644-8.766-9.826C295.78,281.033,294.252,281.137,293.39,281.379 M368.681,281.357
		c-0.521,0.166-1.355,0.712-1.856,1.213l-0.912,0.911l-0.085-1.032l-0.086-1.033h-3.189h-3.19v11.511v11.512h3.19h3.189l0.14-9.248
		l0.138-9.248l0.655-0.529c0.736-0.597,2.173-0.685,2.837-0.175c1.023,0.786,1.085,1.382,1.085,10.444v8.896h3.189h3.19v-10
		c0-10.706-0.008-10.778-1.433-12.109C374.074,281.098,371.033,280.606,368.681,281.357 M385.714,281.413
		c-2.875,1.009-3.784,3.365-3.957,10.265c-0.146,5.808,0.157,8.107,1.312,9.926c1.928,3.041,7.502,3.358,9.721,0.555l0.61-0.771
		l-0.105,3.329c-0.116,3.598-0.364,4.335-1.636,4.862c-1.511,0.626-3.309-0.605-3.309-2.266v-0.794h-3.19
		c-3.629,0-3.519-0.096-2.772,2.415c1.503,5.062,11.923,6.212,15.751,1.739c1.536-1.794,1.585-2.304,1.585-16.482v-12.915h-3.052
		h-3.052v1.271v1.269l-0.751-0.893C391.376,281.148,388.31,280.501,385.714,281.413 M311.642,281.615
		c-0.075,0.195-0.104,5.411-0.064,11.59l0.072,11.233h3.19h3.19v-11.512v-11.511l-3.126-0.079
		C312.557,281.277,311.744,281.346,311.642,281.615 M336.477,290.994c0,10.239,0.069,10.876,1.328,12.294
		c1.972,2.221,6.71,2.126,9.144-0.184l0.901-0.855v1.164v1.164h3.364h3.362l-0.173-0.867c-0.096-0.478-0.174-5.719-0.174-11.65
		v-10.784h-3.176h-3.176l-0.083,9.133l-0.083,9.132l-0.674,0.715c-0.484,0.516-0.954,0.716-1.685,0.716s-1.201-0.2-1.686-0.716
		l-0.673-0.715l-0.084-9.132l-0.083-9.133h-3.176h-3.176V290.994 M41.185,285.708c1.202,0.997,1.415,11.922,0.272,13.876
		c-1.098,1.873-3.618,1.757-4.508-0.206c-0.712-1.57-0.698-11.726,0.017-13.033C37.707,284.99,39.918,284.656,41.185,285.708
		 M78.249,285.238c1.738,1.336,1.961,12.65,0.291,14.901c-1.212,1.635-3.362,0.638-3.934-1.825
		c-0.348-1.501-0.328-10.007,0.027-11.284C75.149,285.176,76.983,284.266,78.249,285.238 M156.284,285.198
		c0.961,0.437,1.552,1.84,1.552,3.679v1.553h-2.912h-2.913v-1.396C152.011,285.816,153.906,284.115,156.284,285.198
		 M250.623,285.506c0.761,0.657,1.231,2.131,1.243,3.893l0.006,1.051l-2.982-0.079l-2.981-0.079l0.073-1.617
		C246.137,285.296,248.505,283.679,250.623,285.506 M298.88,285.54c0.746,0.746,1.255,2.309,1.257,3.858l0.002,1.051l-2.981-0.079
		l-2.982-0.079l0.017-1.248C294.242,285.478,296.861,283.521,298.88,285.54 M391.694,285.168c1.984,1.062,2.395,12.561,0.514,14.44
		c-1.178,1.179-3.268,0.459-3.906-1.344c-0.444-1.255-0.407-9.471,0.05-11.171C388.856,285.22,390.27,284.406,391.694,285.168
		 M90.707,292.233v2.358h5.548h5.548v-2.358v-2.357h-5.548h-5.548V292.233"/>
</g>
</svg>
