<?xml version="1.0" encoding="utf-8"?>
<!-- Generator: Adobe Illustrator 16.0.0, SVG Export Plug-In . SVG Version: 6.00 Build 0)  -->
<!DOCTYPE svg PUBLIC "-//W3C//DTD SVG 1.1//EN" "http://www.w3.org/Graphics/SVG/1.1/DTD/svg11.dtd">
<svg version="1.1" id="Layer_1" xmlns="http://www.w3.org/2000/svg" xmlns:xlink="http://www.w3.org/1999/xlink" x="0px" y="0px"
	 width="546px" height="159.375px" viewBox="0 0 546 159.375" enable-background="new 0 0 546 159.375" xml:space="preserve">
<g id="Layer_2">
	<rect x="0" fill="none" width="1280" height="800"/>
</g>
<g id="Laag_1">
	<g>
		<path fill="#9A9A9A" d="M345.945,111.537c-1.026-1.713-0.686-4.108,1.025-4.795c17.467-9.588,25.688-27.738,25.688-46.918
			c0-29.108-17.467-53.768-54.795-53.768H188.411v0.342c37.671,4.11,66.78,35.274,66.78,73.288c0,37.673-29.452,69.179-66.78,73.288
			v0.344h90.411c2.396,0,4.451-2.056,4.451-4.453v-31.164c0-2.055,1.713-3.768,3.768-3.768h11.646c2.396,0,4.793,1.027,6.164,3.082
			l22.945,32.534c1.713,2.396,4.45,3.769,7.19,3.769h35.959c1.713,0,3.082-2.056,1.713-3.769L345.945,111.537z M315.465,79.345
			H287.04c-2.055,0-3.768-1.712-3.768-3.769V44.07c0-2.055,1.713-3.768,3.768-3.768h28.425c15.069,0,20.549,8.563,20.549,19.861
			C336.357,70.099,330.534,79.345,315.465,79.345z"/>
		<path fill="#9A9A9A" d="M534.303,6.058h-28.769c-2.739,0-5.139,1.712-6.508,4.108L460.329,86.88c-0.686,1.368-2.739,1.368-3.426,0
			l-38.699-76.714c-1.368-2.396-4.108-4.108-6.506-4.108h-28.768c-2.396,0-4.453,2.056-4.453,4.452v137.672
			c0,2.396,2.057,4.452,4.453,4.452h28.424c2.398,0,4.453-2.058,4.453-4.452V81.4c0-1.026,1.369-1.369,1.711-0.343l26.713,53.767
			c1.369,2.397,4.109,4.11,6.508,4.11h15.754c2.738,0,5.138-1.713,6.507-4.11l26.713-53.767c0.342-1.026,1.713-0.687,1.713,0.343
			v67.125c0,2.396,2.055,4.45,4.451,4.45h28.426c2.396,0,4.451-2.055,4.451-4.45V10.51C538.754,8.113,536.698,6.058,534.303,6.058z"
			/>
		<path fill="#9A9A9A" d="M218.547,79.345c0-21.575-16.78-38.698-38.698-38.698c-21.23,0-38.698,17.123-38.698,38.698
			c0,21.576,17.124,38.699,38.698,38.699C201.767,118.044,218.547,100.921,218.547,79.345z"/>
		<path fill="#9A9A9A" d="M11.698,6.058c-2.396,0-4.451,2.056-4.451,4.452v137.672c0,2.396,2.055,4.452,4.451,4.452h28.426
			c2.396,0,4.452-2.058,4.452-4.452V106.4c0-2.055,1.712-3.768,3.767-3.768h51.712c2.397,0,4.452-2.057,4.452-4.452v-25
			c0-2.396-2.055-4.452-4.452-4.452H48.341c-2.055,0-3.767-1.712-3.767-3.769V46.469c0-2.057,1.712-3.77,3.767-3.77h65.069
			c1.026,0,2.055-0.685,2.396-1.369c11.986-18.836,32.534-32.19,55.821-34.932V6.057L11.698,6.058L11.698,6.058z"/>
	</g>
</g>
</svg>
